Coordinates
version=1
nRows=24
nColumns=22
inDegrees=yes

Units are S.I. units (second, meters, Newtons, ...)
If the header above contains a line with 'inDegrees', this indicates whether rotational values are in degrees (yes) or radians (no).

endheader
time	pelvis_tilt	pelvis_list	pelvis_rotation	pelvis_tx	pelvis_ty	pelvis_tz	hip_flexion_r	hip_adduction_r	hip_rotation_r	knee_angle_r	ankle_angle_r	subtalar_angle_r	hip_flexion_l	hip_adduction_l	hip_rotation_l	knee_angle_l	ankle_angle_l	subtalar_angle_l	lumbar_extension	lumbar_bending	lumbar_rotation
      1.24000000	    -13.08148514	      1.55475611	    -14.80149324	     -0.96545017	      0.95437792	     -0.37687452	     46.09761062	      1.26244263	     -7.20907164	    -40.46078539	     16.80807442	     -5.40467492	      9.80294503	      3.12852203	     -5.73420562	    -17.44498861	     27.30766812	     -3.39895677	     -3.65289647	      0.71210845	     -0.37987349
      1.25000000	    -13.04114555	      1.59265745	    -14.72096640	     -0.96080011	      0.95362470	     -0.37528321	     46.37731404	      1.26958584	     -7.42300732	    -39.87434370	     16.46379166	     -5.31349878	      9.45831045	      3.16443224	     -5.67775675	    -17.45676725	     27.45255474	     -3.36456283	     -3.72573227	      0.66481587	     -0.42931177
      1.26000000	    -12.99179447	      1.58663245	    -14.60916108	     -0.95599840	      0.95289106	     -0.37366015	     46.59040436	      1.28627386	     -7.69500219	    -39.24980635	     16.15061698	     -5.20964532	      9.09531540	      3.15262908	     -5.62180497	    -17.48952083	     27.59510882	     -3.30215187	     -3.81910700	      0.67116628	     -0.53784526
      1.27000000	    -12.96298736	      1.64185276	    -14.51063239	     -0.95113394	      0.95204643	     -0.37198237	     46.83549370	      1.26969412	     -7.91485589	    -38.64170835	     15.80363974	     -5.13415133	      8.77244202	      3.19722152	     -5.56540940	    -17.53955417	     27.73049617	     -3.26055572	     -3.87366682	      0.61335354	     -0.60046119
      1.28000000	    -12.93620293	      1.66844831	    -14.38408331	     -0.94611360	      0.95119554	     -0.37026175	     47.02829065	      1.25600866	     -8.18442800	    -38.00123851	     15.48280587	     -5.06209145	      8.44673445	      3.20705372	     -5.50559407	    -17.61155528	     27.86593111	     -3.18842072	     -3.93055624	      0.59316494	     -0.71389792
      1.29000000	    -12.92126523	      1.76885509	    -14.29075017	     -0.94095726	      0.95024385	     -0.36845358	     47.24079053	      1.20913277	     -8.39114522	    -37.38207992	     15.15083970	     -5.00122757	      8.13591328	      3.28658797	     -5.48712649	    -17.67221004	     27.98824578	     -3.15842874	     -3.94302412	      0.49627839	     -0.79217685
      1.30000000	    -12.87932226	      1.81109959	    -14.14978929	     -0.93564048	      0.94936993	     -0.36667192	     47.34928999	      1.15694762	     -8.71393557	    -36.71498388	     14.81651169	     -4.92714359	      7.80446143	      3.31685874	     -5.39572877	    -17.79535818	     28.07691836	     -3.07077460	     -4.00817338	      0.46590135	     -0.87106783
      1.31000000	    -12.82148118	      1.90696907	    -14.04108087	     -0.93009643	      0.94846642	     -0.36477872	     47.42808675	      1.07670278	     -9.01305202	    -36.06672046	     14.50002782	     -4.84712940	      7.43568179	      3.40061069	     -5.36089973	    -17.88165775	     28.15664386	     -2.99360433	     -4.05612506	      0.37473053	     -0.94316733
      1.32000000	    -12.69403137	      1.97503410	    -13.93136990	     -0.92425876	      0.94769159	     -0.36284960	     47.36733778	      0.98885248	     -9.38040852	    -35.40001879	     14.26604095	     -4.73708715	      6.95388250	      3.47378714	     -5.32533839	    -17.93591931	     28.20611693	     -2.85434592	     -4.17660990	      0.31374110	     -1.03309823
      1.33000000	    -12.54530049	      2.07824683	    -13.83755948	     -0.91819833	      0.94691325	     -0.36083878	     47.26298571	      0.87128765	     -9.75486840	    -34.76737870	     14.03876646	     -4.61660678	      6.44442930	      3.58472312	     -5.29838418	    -17.99330528	     28.22337858	     -2.72465733	     -4.29459780	      0.20926718	     -1.08240797
      1.34000000	    -12.37827391	      2.18532418	    -13.74160953	     -0.91192805	      0.94614869	     -0.35880552	     47.09834221	      0.73557168	    -10.15956951	    -34.16086553	     13.86846009	     -4.49983988	      5.91492395	      3.70364719	     -5.25561187	    -18.07242346	     28.22058634	     -2.58430356	     -4.42289715	      0.10955988	     -1.12161261
      1.35000000	    -12.23748733	      2.31059252	    -13.62209827	     -0.90549733	      0.94532801	     -0.35675233	     46.92519654	      0.57694961	    -10.56063990	    -33.59310203	     13.71483152	     -4.41221017	      5.43080715	      3.83444387	     -5.15642441	    -18.19763370	     28.18535018	     -2.45322835	     -4.50726581	      0.00679703	     -1.18668736
      1.36000000	    -12.07415625	      2.40816769	    -13.49288049	     -0.89882155	      0.94453610	     -0.35465102	     46.67964228	      0.41835112	    -11.00945431	    -33.08727644	     13.66706814	     -4.35183249	      4.91512433	      3.93489728	     -5.05538408	    -18.34969180	     28.15090421	     -2.27403659	     -4.60960791	     -0.05922120	     -1.24624379
      1.37000000	    -11.90301447	      2.47748459	    -13.38678496	     -0.89193480	      0.94375201	     -0.35239773	     46.37716272	      0.30580435	    -11.43300252	    -32.64526644	     13.66681400	     -4.34889938	      4.38853391	      3.99171652	     -4.98881321	    -18.54120982	     28.12659518	     -2.00643865	     -4.71389996	     -0.09569802	     -1.24998962
      1.38000000	    -11.80230208	      2.56215344	    -13.22511539	     -0.88492321	      0.94284892	     -0.35017887	     46.12325866	      0.16629419	    -11.83291449	    -32.29476000	     13.66415182	     -4.39661504	      3.97082733	      4.05248431	     -4.79141412	    -18.80963616	     28.06934329	     -1.77255646	     -4.72815335	     -0.11712209	     -1.30693262
      1.39000000	    -11.69103235	      2.60954917	    -13.08743181	     -0.87768878	      0.94197810	     -0.34781216	     45.81662864	      0.08454173	    -12.18404706	    -32.03809161	     13.61210851	     -4.56044238	      3.54003644	      4.05639336	     -4.66743198	    -19.12152962	     27.99885989	     -1.40117516	     -4.74900424	     -0.09279950	     -1.33824386
      1.40000000	    -11.63148418	      2.64747516	    -12.94313401	     -0.87030494	      0.94104092	     -0.34535458	     45.54197199	      0.04209667	    -12.44075064	    -31.89253861	     13.46084239	     -4.81675723	      3.17700124	      4.03347188	     -4.47866984	    -19.48746881	     27.90795356	     -1.00626205	     -4.70278956	     -0.04180588	     -1.35692371
      1.41000000	    -11.60195660	      2.66330193	    -12.80889857	     -0.86275105	      0.94008342	     -0.34279034	     45.28063150	      0.05765843	    -12.58554562	    -31.86700100	     13.16610363	     -5.20573994	      2.85671140	      3.97137019	     -4.28347907	    -19.90866650	     27.80555596	     -0.55939426	     -4.61564013	      0.05010781	     -1.35618581
      1.42000000	    -11.61077109	      2.64234124	    -12.69939188	     -0.85502049	      0.93911045	     -0.34009519	     45.04956980	      0.15218472	    -12.62377637	    -31.97309287	     12.69387492	     -5.74495677	      2.57674864	      3.85443130	     -4.07125256	    -20.37179761	     27.68278586	     -0.06588736	     -4.48003179	      0.19894428	     -1.30844847
      1.43000000	    -11.63383384	      2.61323905	    -12.65395672	     -0.84714064	      0.93814783	     -0.33716796	     44.85031405	      0.33577462	    -12.47560792	    -32.21917598	     12.05145490	     -6.54565633	      2.32044589	      3.70818439	     -3.92383071	    -20.87806339	     27.51804840	      0.52988137	     -4.31720726	      0.35231275	     -1.18701386
      1.44000000	    -11.65110229	      2.56821911	    -12.64157722	     -0.83910312	      0.93725310	     -0.33412324	     44.66441144	      0.57396462	    -12.19869699	    -32.59938391	     11.31965590	     -7.53405161	      2.07424884	      3.54261309	     -3.76330338	    -21.43968442	     27.30579435	      1.17900897	     -4.15754268	      0.53090039	     -1.06032045
      1.45000000	    -11.65950647	      2.49204521	    -12.67708889	     -0.83088629	      0.93644960	     -0.33092980	     44.49336260	      0.87402150	    -11.84702668	    -33.11232621	     10.57069095	     -8.67250564	      1.83230253	      3.34084580	     -3.60932133	    -22.06046276	     27.02882942	      1.89388873	     -4.00473421	      0.74567567	     -0.86688366
      1.46000000	    -11.64372153	      2.38736077	    -12.76467490	     -0.82251251	      0.93577559	     -0.32758013	     44.32145706	      1.22866329	    -11.43681615	    -33.73641284	      9.91902330	     -9.87667644	      1.59531662	      3.10934844	     -3.46501295	    -22.76666351	     26.67815416	      2.67747125	     -3.87874474	      0.98705951	     -0.63089557
      1.47000000	    -11.59560373	      2.25302905	    -12.89488621	     -0.81399816	      0.93526539	     -0.32412116	     44.13372628	      1.62153716	    -11.00494451	    -34.44864738	      9.44757387	    -11.04190641	      1.37059714	      2.85388082	     -3.31546155	    -23.58274051	     26.24051048	      3.53172652	     -3.79429455	      1.25941006	     -0.36091888
